<svg width="41" height="40" viewBox="0 0 41 40" fill="none" xmlns="http://www.w3.org/2000/svg">
<g clip-path="url(#clip0_4_39)">
<path d="M20.5 40C31.5457 40 40.5 31.0457 40.5 20C40.5 8.9543 31.5457 0 20.5 0C9.4543 0 0.5 8.9543 0.5 20C0.5 31.0457 9.4543 40 20.5 40Z" fill="#F0F0F0"/>
<path d="M4.63436 7.82359C3.06334 9.86758 1.87873 12.2234 1.18896 14.7827H11.5935L4.63436 7.82359Z" fill="#0052B4"/>
<path d="M39.811 14.7827C39.1212 12.2235 37.9365 9.86765 36.3656 7.82367L29.4066 14.7827H39.811Z" fill="#0052B4"/>
<path d="M1.18896 25.2175C1.87881 27.7767 3.06342 30.1326 4.63436 32.1765L11.5933 25.2175H1.18896Z" fill="#0052B4"/>
<path d="M32.6764 4.13445C30.6324 2.56343 28.2766 1.37882 25.7173 0.68898V11.0934L32.6764 4.13445Z" fill="#0052B4"/>
<path d="M8.32355 35.8655C10.3675 37.4366 12.7234 38.6212 15.2826 39.311V28.9066L8.32355 35.8655Z" fill="#0052B4"/>
<path d="M15.2825 0.68898C12.7233 1.37882 10.3675 2.56343 8.32355 4.13437L15.2825 11.0934V0.68898Z" fill="#0052B4"/>
<path d="M25.7174 39.311C28.2766 38.6212 30.6325 37.4366 32.6764 35.8656L25.7174 28.9066V39.311Z" fill="#0052B4"/>
<path d="M29.4066 25.2175L36.3656 32.1766C37.9365 30.1327 39.1212 27.7767 39.811 25.2175H29.4066Z" fill="#0052B4"/>
<path d="M40.3307 17.3913H23.1088H23.1087V0.169297C22.2548 0.058125 21.3841 0 20.5 0C19.6157 0 18.7452 0.058125 17.8913 0.169297V17.3912V17.3913H0.669297C0.558125 18.2452 0.5 19.1159 0.5 20C0.5 20.8843 0.558125 21.7548 0.669297 22.6087H17.8912H17.8913V39.8307C18.7452 39.9419 19.6157 40 20.5 40C21.3841 40 22.2548 39.942 23.1087 39.8307V22.6088V22.6087H40.3307C40.4419 21.7548 40.5 20.8843 40.5 20C40.5 19.1159 40.4419 18.2452 40.3307 17.3913Z" fill="#D80027"/>
<path d="M25.7174 25.2175L34.6421 34.1422C35.0526 33.7319 35.4441 33.3029 35.8177 32.8582L28.1769 25.2174H25.7174V25.2175Z" fill="#D80027"/>
<path d="M15.2826 25.2175H15.2824L6.35779 34.1421C6.7681 34.5526 7.19708 34.9441 7.64177 35.3177L15.2826 27.6768V25.2175Z" fill="#D80027"/>
<path d="M15.2826 14.7827V14.7826L6.35788 5.85782C5.94741 6.26813 5.55584 6.69712 5.18225 7.1418L12.8231 14.7827H15.2826V14.7827Z" fill="#D80027"/>
<path d="M25.7174 14.7827L34.6422 5.85789C34.2319 5.44742 33.8029 5.05586 33.3582 4.68234L25.7174 12.3232V14.7827Z" fill="#D80027"/>
</g>
<defs>
<clipPath id="clip0_4_39">
<rect width="40" height="40" fill="white" transform="translate(0.5)"/>
</clipPath>
</defs>
</svg>
