<svg width="41" height="41" viewBox="0 0 41 41" fill="none" xmlns="http://www.w3.org/2000/svg">
<g clip-path="url(#clip0_9_1487)">
<path d="M20.5 40.5833C31.5457 40.5833 40.5 31.6289 40.5 20.5833C40.5 9.53756 31.5457 0.583252 20.5 0.583252C9.4543 0.583252 0.5 9.53756 0.5 20.5833C0.5 31.6289 9.4543 40.5833 20.5 40.5833Z" fill="#F0F0F0"/>
<path d="M16.1522 17.9746H40.3306C39.0523 8.16153 30.6614 0.583252 20.4999 0.583252C19.0066 0.583252 17.5521 0.74833 16.1521 1.05864V17.9746H16.1522Z" fill="#D80027"/>
<path d="M10.9347 17.9746V3.01514C5.44302 6.01154 1.51161 11.5077 0.669189 17.9747H10.9347V17.9746Z" fill="#D80027"/>
<path d="M10.9346 23.1919H0.669189C1.51161 29.6588 5.44302 35.155 10.9347 38.1514L10.9346 23.1919Z" fill="#D80027"/>
<path d="M16.1521 23.192V40.1078C17.5521 40.4181 19.0066 40.5832 20.4999 40.5832C30.6614 40.5832 39.0523 33.0049 40.3306 23.1919H16.1521V23.192Z" fill="#D80027"/>
</g>
<defs>
<clipPath id="clip0_9_1487">
<rect width="40" height="40" fill="white" transform="translate(0.5 0.583252)"/>
</clipPath>
</defs>
</svg>
