<svg width="437" height="437" viewBox="0 0 437 437" fill="none" xmlns="http://www.w3.org/2000/svg">
<path d="M162.6 36.4167H91.4058C54.625 36.4167 36.4167 54.625 36.4167 91.4058V162.783C36.4167 200.292 54.625 218.5 91.4058 217.59H162.783C200.292 218.5 218.5 200.292 217.59 162.6V91.4058C218.5 54.625 200.292 36.4167 162.6 36.4167ZM164.057 177.713C151.675 177.713 139.658 172.979 129.643 164.603C118.354 172.797 104.698 177.713 89.9492 177.713C82.4838 177.713 76.2929 171.523 76.2929 164.057C76.2929 156.592 82.4838 150.401 89.9492 150.401C108.522 150.401 123.999 137.655 129.643 120.175H89.9492C82.4838 120.175 76.2929 113.984 76.2929 106.519C76.2929 99.0533 82.4838 92.8625 89.9492 92.8625H113.438C114.166 85.9433 119.811 80.4809 126.912 80.4809C134.013 80.4809 139.658 85.9433 140.386 92.8625H145.12C145.303 92.8625 145.485 92.8625 145.485 92.8625H145.849H163.875C171.34 92.8625 177.531 99.0533 177.531 106.519C177.531 113.984 171.523 120.175 163.875 120.175H157.866C156.228 128.915 152.768 137.109 148.216 144.574C153.132 148.216 158.413 150.401 164.057 150.401C171.523 150.401 177.713 156.592 177.713 164.057C177.713 171.523 171.523 177.713 164.057 177.713Z" fill="#121212"/>
<path d="M163.875 414.24C86.1254 414.24 22.7604 350.875 22.7604 273.125C22.7604 265.66 28.9513 259.469 36.4167 259.469C43.8821 259.469 50.0729 265.66 50.0729 273.125C50.0729 327.022 87.5821 372.178 138.019 384.014L133.103 375.82C129.279 369.265 131.282 360.889 137.837 357.065C144.21 353.242 152.768 355.245 156.592 361.8L175.71 393.664C178.26 397.852 178.26 403.133 175.893 407.32C173.343 411.508 168.791 414.24 163.875 414.24Z" fill="#121212"/>
<path d="M400.583 177.531C393.118 177.531 386.927 171.34 386.927 163.875C386.927 109.978 349.418 64.8217 298.981 52.9863L303.897 61.18C307.721 67.735 305.718 76.1108 299.163 79.9346C292.79 83.7583 284.232 81.7554 280.408 75.2004L261.29 43.3359C258.74 39.1479 258.74 33.8675 261.107 29.6796C263.657 25.4917 268.209 22.7604 273.125 22.7604C350.875 22.7604 414.24 86.1254 414.24 163.875C414.24 171.34 408.049 177.531 400.583 177.531Z" fill="#121212"/>
<path d="M308.085 215.769C257.102 215.769 215.587 257.102 215.587 308.267C215.587 359.25 256.92 400.765 308.085 400.765C359.068 400.765 400.583 359.432 400.583 308.267C400.583 257.102 359.25 215.769 308.085 215.769ZM353.242 352.149C346.505 355.427 338.311 352.877 334.851 345.958L331.756 339.767H284.596L281.501 345.958C279.134 350.692 274.218 353.424 269.301 353.424C267.298 353.424 265.113 352.877 263.293 351.967C256.555 348.507 253.824 340.314 257.102 333.577L296.068 255.827C298.435 251.275 303.169 248.362 308.267 248.362C313.365 248.362 318.1 251.275 320.467 256.009L359.432 333.759C362.71 340.496 359.979 348.69 353.242 352.149Z" fill="#121212"/>
<path d="M298.252 312.455H318.1L308.085 292.608L298.252 312.455Z" fill="#121212"/>
</svg>
